# xmcd
#
# Track frame offsets:
#       150
#       16795
#       32640
#       47658
#       58819
#       73218
#       85526
#       98573
#       111278
#       126888
#       140637
#       154643
#       167867
#       184381
#       196750
#       209004
#       224148
#       239054
#
# Disc length: 3404 seconds
#
# Revision: 0
# Processed by: cddbd v1.5.1PL2 Copyright (c) Steve Scherf et al.
# Submitted via: WaveLab 4.01
#
DISCID=0f0d4a12
DTITLE=Nashville Friends - Nashville Sound Vol. 2
DYEAR=2004
DGENRE=
TTITLE0=Alaska Highway
TTITLE1=Mexico
TTITLE2=Tell Me Why
TTITLE3=I Love It Through And Through
TTITLE4=Starlight
TTITLE5=Homeward Bound
TTITLE6=Big Wheels Rollin´
TTITLE7=Rollin´Home
TTITLE8=Daddy When I Am Big, I Want To Be Like You
TTITLE9=Sweet Magnolia
TTITLE10=Nothin´Feels As Good As Comin´Home
TTITLE11=Free And Rolling
TTITLE12=Jim Small
TTITLE13=My Heart´s In Idaho
TTITLE14=Make Your Play
TTITLE15=When I Was Young
TTITLE16=Big Rig
TTITLE17=Happy Days
EXTD=
EXTT0=
EXTT1=
EXTT2=
EXTT3=
EXTT4=
EXTT5=
EXTT6=
EXTT7=
EXTT8=
EXTT9=
EXTT10=
EXTT11=
EXTT12=
EXTT13=
EXTT14=
EXTT15=
EXTT16=
EXTT17=
PLAYORDER=
